<svg width="41" height="41" viewBox="0 0 41 41" fill="none" xmlns="http://www.w3.org/2000/svg">
<path d="M0.766754 20.9862C0.766754 15.4004 0.766754 12.6075 1.55239 10.3623C2.95956 6.34084 6.12139 3.17901 10.1428 1.77184C12.3881 0.986206 15.181 0.986206 20.7668 0.986206C26.3526 0.986206 29.1455 0.986206 31.3907 1.77184C35.4121 3.17901 38.574 6.34084 39.9811 10.3623C40.7668 12.6075 40.7668 15.4004 40.7668 20.9862V27.6529C40.7668 33.6066 40.7668 36.5835 39.0726 38.5522C38.8448 38.8169 38.5975 39.0642 38.3328 39.292C36.3641 40.9862 33.3872 40.9862 27.4334 40.9862H14.1001C8.14632 40.9862 5.16944 40.9862 3.20074 39.292C2.93604 39.0642 2.68875 38.8169 2.46095 38.5522C0.766754 36.5835 0.766754 33.6066 0.766754 27.6529V20.9862Z" fill="#232437"/>
<path d="M16.5668 17.3862C16.5668 19.8163 14.5968 21.7862 12.1668 21.7862C9.7367 21.7862 7.76675 19.8163 7.76675 17.3862C7.76675 14.9562 9.7367 12.9862 12.1668 12.9862C14.5968 12.9862 16.5668 14.9562 16.5668 17.3862Z" fill="#FBFCFC"/>
<path d="M33.2056 16.9862C33.7111 16.9862 33.8535 16.9446 33.7531 17.4256C33.5757 18.2752 33.1446 19.0626 32.504 19.6847C31.6459 20.518 30.4819 20.9862 29.2682 20.9862C28.0546 20.9862 26.8907 20.518 26.0325 19.6847C25.3919 19.0626 24.9608 18.2752 24.7834 17.4256C24.683 16.9446 24.8255 16.9862 25.3309 16.9862C25.8364 16.9862 27.5141 18.3912 29.3445 18.3912C31.1749 18.3912 32.7001 16.9862 33.2056 16.9862Z" fill="#FBFCFC"/>
<path d="M24.6834 26.9862C25.2357 26.9862 25.6935 27.4151 25.5838 27.9287C25.3899 28.8357 24.9189 29.6764 24.2189 30.3405C23.2813 31.2302 22.0095 31.73 20.6834 31.73C19.3573 31.73 18.0856 31.2302 17.1479 30.3405C16.4479 29.6764 15.9769 28.8357 15.7831 27.9287C15.6733 27.4151 16.1311 26.9862 16.6834 26.9862C16.6834 26.9862 19.1092 27.4862 20.6834 27.4862C22.2577 27.4862 24.6834 26.9862 24.6834 26.9862Z" fill="#FBFCFC"/>
</svg>
